<svg width="1921" height="960" viewBox="0 0 1921 960" fill="none" xmlns="http://www.w3.org/2000/svg">
<g opacity="0.1">
<g clip-path="url(#clip0_29_867)">
<path d="M1921 692.32C1838.06 674.747 1755.28 657.173 1664.82 636.35C1574.51 615.407 1476.52 591.213 1431.21 539.697C1385.73 488.301 1392.78 409.703 1367.8 343.743C1342.66 277.903 1285.5 224.701 1228.18 171.5H1921V692.32Z" fill="black"/>
<path d="M7 215.5C111.053 221.347 215.275 227.061 280.477 271.179C345.679 315.298 371.861 397.555 441.793 448.45C511.725 499.346 625.575 518.747 682.162 570.44C738.918 622.266 738.411 706.383 737.905 790.5H7V215.5Z" fill="black"/>
</g>
</g>
<defs>
<clipPath id="clip0_29_867">
<rect width="1920" height="960" fill="white" transform="translate(0.5)"/>
</clipPath>
</defs>
</svg>
