<svg width="40" height="40" viewBox="0 0 40 40" fill="none" xmlns="http://www.w3.org/2000/svg">
<rect x="0.190002" y="0.0351562" width="39.59" height="39.59" rx="19.795" fill="#0B7BC3"/>
<path d="M29.5358 15.4797C29.9577 16.9563 29.9577 20.1204 29.9577 20.1204C29.9577 20.1204 29.9577 23.2493 29.5358 24.761C29.3249 25.6047 28.6569 26.2375 27.8483 26.4485C26.3366 26.8352 20.36 26.8352 20.36 26.8352C20.36 26.8352 14.3483 26.8352 12.8366 26.4485C12.028 26.2375 11.36 25.6047 11.1491 24.761C10.7272 23.2493 10.7272 20.1204 10.7272 20.1204C10.7272 20.1204 10.7272 16.9563 11.1491 15.4797C11.36 14.636 12.028 13.968 12.8366 13.7571C14.3483 13.3352 20.36 13.3352 20.36 13.3352C20.36 13.3352 26.3366 13.3352 27.8483 13.7571C28.6569 13.968 29.3249 14.636 29.5358 15.4797ZM18.3913 22.968L23.3835 20.1204L18.3913 17.2727V22.968Z" fill="white"/>
</svg>
