<svg width="41" height="40" viewBox="0 0 41 40" fill="none" xmlns="http://www.w3.org/2000/svg">
<rect x="0.779999" y="0.0351562" width="39.59" height="39.59" rx="19.795" fill="#0B7BC3"/>
<path d="M19.7 16.0422C21.9149 16.0422 23.743 17.8704 23.743 20.0852C23.743 22.3352 21.9149 24.1282 19.7 24.1282C17.45 24.1282 15.657 22.3352 15.657 20.0852C15.657 17.8704 17.45 16.0422 19.7 16.0422ZM19.7 22.7219C21.1414 22.7219 22.3016 21.5618 22.3016 20.0852C22.3016 18.6438 21.1414 17.4836 19.7 17.4836C18.2234 17.4836 17.0633 18.6438 17.0633 20.0852C17.0633 21.5618 18.2586 22.7219 19.7 22.7219ZM24.8328 15.9016C24.8328 16.429 24.4109 16.8508 23.8836 16.8508C23.3563 16.8508 22.9344 16.429 22.9344 15.9016C22.9344 15.3743 23.3563 14.9524 23.8836 14.9524C24.4109 14.9524 24.8328 15.3743 24.8328 15.9016ZM27.5047 16.8508C27.575 18.1516 27.575 22.054 27.5047 23.3547C27.4344 24.6204 27.1531 25.7102 26.2391 26.6594C25.325 27.5735 24.2 27.8547 22.9344 27.925C21.6336 27.9954 17.7313 27.9954 16.4305 27.925C15.1649 27.8547 14.075 27.5735 13.1258 26.6594C12.2117 25.7102 11.9305 24.6204 11.8602 23.3547C11.7899 22.054 11.7899 18.1516 11.8602 16.8508C11.9305 15.5852 12.2117 14.4602 13.1258 13.5461C14.075 12.6321 15.1649 12.3508 16.4305 12.2805C17.7313 12.2102 21.6336 12.2102 22.9344 12.2805C24.2 12.3508 25.325 12.6321 26.2391 13.5461C27.1531 14.4602 27.4344 15.5852 27.5047 16.8508ZM25.8172 24.7258C26.2391 23.7063 26.1336 21.2454 26.1336 20.0852C26.1336 18.9602 26.2391 16.4993 25.8172 15.4446C25.5359 14.7766 25.0086 14.2141 24.3406 13.968C23.2859 13.5461 20.825 13.6516 19.7 13.6516C18.5399 13.6516 16.0789 13.5461 15.0594 13.968C14.3563 14.2493 13.8289 14.7766 13.5477 15.4446C13.1258 16.4993 13.2313 18.9602 13.2313 20.0852C13.2313 21.2454 13.1258 23.7063 13.5477 24.7258C13.8289 25.429 14.3563 25.9563 15.0594 26.2375C16.0789 26.6594 18.5399 26.554 19.7 26.554C20.825 26.554 23.2859 26.6594 24.3406 26.2375C25.0086 25.9563 25.5711 25.429 25.8172 24.7258Z" fill="white"/>
</svg>
