<svg width="41" height="40" viewBox="0 0 41 40" fill="none" xmlns="http://www.w3.org/2000/svg">
<rect x="0.589996" y="0.0351562" width="39.59" height="39.59" rx="19.795" fill="#0B7BC3"/>
<path d="M27.5267 16.429C27.5267 16.6047 27.5267 16.7454 27.5267 16.9211C27.5267 21.8079 23.8353 27.3977 17.0501 27.3977C14.9408 27.3977 13.0072 26.8 11.39 25.7454C11.6712 25.7805 11.9525 25.8157 12.2689 25.8157C13.9915 25.8157 15.5736 25.218 16.8392 24.2336C15.222 24.1985 13.8509 23.1438 13.3939 21.6672C13.64 21.7024 13.8509 21.7375 14.097 21.7375C14.4134 21.7375 14.765 21.6672 15.0462 21.5969C13.3587 21.2454 12.0931 19.7688 12.0931 17.9758V17.9407C12.5853 18.2219 13.183 18.3625 13.7806 18.3977C12.7611 17.7297 12.1283 16.6047 12.1283 15.3391C12.1283 14.636 12.304 14.0032 12.6205 13.4758C14.4486 15.6907 17.1908 17.1672 20.2494 17.343C20.179 17.0618 20.1439 16.7805 20.1439 16.4993C20.1439 14.4602 21.7962 12.8079 23.8353 12.8079C24.89 12.8079 25.8392 13.2297 26.5423 13.968C27.3509 13.7922 28.1595 13.4758 28.8626 13.054C28.5814 13.9329 28.0189 14.636 27.2455 15.093C27.9837 15.0227 28.722 14.8118 29.3548 14.5305C28.8626 15.2688 28.2298 15.9016 27.5267 16.429Z" fill="white"/>
</svg>
