<svg width="18" height="18" viewBox="0 0 18 18" fill="none" xmlns="http://www.w3.org/2000/svg">
<path d="M18 7.5061C18 6.99048 17.9368 6.48657 17.8103 5.99438C17.6838 5.5022 17.5082 5.03345 17.2834 4.58813C17.0585 4.14282 16.7845 3.71509 16.4614 3.30493C16.1382 2.90649 15.7728 2.53735 15.3653 2.19751C14.9578 1.85767 14.5152 1.55298 14.0375 1.28345C13.5457 1.01392 13.0328 0.7854 12.4988 0.5979C11.9649 0.4104 11.4028 0.263916 10.8126 0.158447C10.2225 0.0529785 9.61827 0.000244141 9 0.000244141C8.38173 0.000244141 7.77752 0.0529785 7.18735 0.158447C6.59719 0.263916 6.03513 0.4104 5.50117 0.5979C4.96721 0.7854 4.45433 1.01392 3.96253 1.28345C3.48478 1.55298 3.04215 1.85767 2.63466 2.19751C2.22717 2.53735 1.86183 2.90649 1.53864 3.30493C1.21546 3.71509 0.941452 4.14282 0.716628 4.58813C0.491803 5.03345 0.316159 5.5022 0.189696 5.99438C0.0632318 6.48657 0 6.99048 0 7.5061C0 7.71704 0.0140515 7.92798 0.0421546 8.13892C0.0702576 8.34985 0.105386 8.56079 0.147541 8.77173C0.274005 9.34595 0.467213 9.90552 0.727166 10.4504C0.987119 10.9954 1.29274 11.5139 1.64403 12.0061C2.2623 12.8616 2.96487 13.6526 3.75176 14.3792C4.55269 15.094 5.30445 15.7122 6.00703 16.2336C6.7096 16.7551 7.29977 17.1565 7.77752 17.4377C8.25527 17.7307 8.49415 17.8772 8.49415 17.8772C8.64871 17.9592 8.81733 18.0002 9 18.0002C9.18267 18.0002 9.35129 17.9592 9.50585 17.8772C9.50585 17.8772 9.74473 17.7307 10.2225 17.4377C10.7002 17.1565 11.2904 16.7551 11.993 16.2336C12.6955 15.7122 13.4473 15.094 14.2482 14.3792C15.0351 13.6526 15.7307 12.8616 16.3349 12.0061C16.7002 11.5139 17.0129 10.9954 17.2728 10.4504C17.5328 9.90552 17.726 9.34595 17.8525 8.77173C17.8946 8.56079 17.9297 8.34985 17.9578 8.13892C17.9859 7.92798 18 7.71704 18 7.5061ZM16.1874 7.5061C16.1874 7.67017 16.1803 7.83716 16.1663 8.00708C16.1522 8.177 16.1241 8.34399 16.082 8.50806C15.9836 8.97681 15.822 9.4397 15.5972 9.89673C15.3724 10.3538 15.1054 10.7991 14.7963 11.2327C14.3747 11.842 13.8899 12.4104 13.3419 12.9377C12.808 13.4651 12.274 13.9485 11.74 14.3879C11.2061 14.8274 10.7002 15.2053 10.2225 15.5217C9.75878 15.8499 9.37236 16.1077 9.06323 16.2952C8.7541 16.1194 8.35363 15.8733 7.86183 15.5569C7.38407 15.2405 6.87119 14.8625 6.32318 14.4231C5.77518 13.9836 5.22717 13.4944 4.67916 12.9553C4.13115 12.4163 3.63934 11.842 3.20375 11.2327C2.89461 10.7991 2.62763 10.3538 2.40281 9.89673C2.17799 9.4397 2.01639 8.97681 1.91803 8.50806C1.87588 8.34399 1.84778 8.177 1.83372 8.00708C1.81967 7.83716 1.81265 7.67017 1.81265 7.5061C1.81265 6.67407 1.99883 5.89478 2.37119 5.16821C2.74356 4.44165 3.25995 3.80884 3.92037 3.26978C4.56674 2.71899 5.32553 2.28833 6.19672 1.97778C7.06792 1.66724 8.00234 1.51196 9 1.51196C9.99766 1.51196 10.9321 1.66724 11.8033 1.97778C12.6745 2.28833 13.4333 2.71899 14.0796 3.26978C14.74 3.80884 15.2564 4.44165 15.6288 5.16821C16.0012 5.89478 16.1874 6.67407 16.1874 7.5061ZM12.6042 7.5061C12.6042 7.09595 12.5094 6.7063 12.3197 6.33716C12.13 5.96802 11.8735 5.64868 11.5504 5.37915C11.2272 5.10962 10.8443 4.89575 10.4016 4.73755C9.95902 4.57935 9.4918 4.50024 9 4.50024C8.5082 4.50024 8.04098 4.57935 7.59836 4.73755C7.15574 4.89575 6.77283 5.10962 6.44965 5.37915C6.12646 5.64868 5.87002 5.96802 5.68033 6.33716C5.49063 6.7063 5.39578 7.09595 5.39578 7.5061C5.39578 7.91626 5.49063 8.30591 5.68033 8.67505C5.87002 9.04419 6.12646 9.36353 6.44965 9.63306C6.77283 9.90259 7.15574 10.1165 7.59836 10.2747C8.04098 10.4329 8.5082 10.512 9 10.512C9.4918 10.512 9.95902 10.4329 10.4016 10.2747C10.8443 10.1165 11.2272 9.90259 11.5504 9.63306C11.8735 9.36353 12.13 9.04419 12.3197 8.67505C12.5094 8.30591 12.6042 7.91626 12.6042 7.5061ZM10.7916 7.5061C10.7916 7.71704 10.7459 7.91333 10.6546 8.09497C10.5632 8.27661 10.4333 8.43188 10.2646 8.56079C10.1101 8.70142 9.92389 8.80981 9.70609 8.88599C9.48829 8.96216 9.25293 9.00024 9 9.00024C8.74707 9.00024 8.51171 8.96216 8.29391 8.88599C8.07611 8.80981 7.88993 8.70142 7.73536 8.56079C7.56674 8.43188 7.43677 8.27661 7.34543 8.09497C7.2541 7.91333 7.20843 7.71704 7.20843 7.5061C7.20843 7.29517 7.2541 7.09888 7.34543 6.91724C7.43677 6.7356 7.56674 6.58032 7.73536 6.45142C7.88993 6.31079 8.07611 6.20239 8.29391 6.12622C8.51171 6.05005 8.74707 6.01196 9 6.01196C9.25293 6.01196 9.48829 6.05005 9.70609 6.12622C9.92389 6.20239 10.1101 6.31079 10.2646 6.45142C10.4333 6.58032 10.5632 6.7356 10.6546 6.91724C10.7459 7.09888 10.7916 7.29517 10.7916 7.5061Z" fill="#0B7BC3"/>
</svg>
