<svg width="18" height="18" viewBox="0 0 18 18" fill="none" xmlns="http://www.w3.org/2000/svg">
<path d="M1.63113 4.81763L8.53945 10.7239C8.66738 10.8489 8.8177 10.9114 8.99041 10.9114C9.16311 10.9114 9.31983 10.8489 9.46055 10.7239L16.3689 4.81763V14.8958C16.3689 15.0364 16.3465 15.1692 16.3017 15.2942C16.2569 15.4192 16.1962 15.5208 16.1194 15.5989C16.0426 15.6926 15.9563 15.7668 15.8603 15.8215C15.7644 15.8762 15.6588 15.9036 15.5437 15.9036H2.45629C2.34115 15.9036 2.23241 15.8762 2.13006 15.8215C2.02772 15.7668 1.94456 15.6926 1.8806 15.5989C1.80384 15.5051 1.74307 15.3997 1.69829 15.2825C1.65352 15.1653 1.63113 15.0364 1.63113 14.8958V4.81763ZM0 2.89575C0 2.89575 0 2.89966 0 2.90747C0 2.91528 0 2.91919 0 2.91919V14.8958C0 15.3176 0.0639659 15.7083 0.191898 16.0676C0.319829 16.427 0.492537 16.7473 0.710021 17.0286C0.927505 17.2942 1.18657 17.5051 1.48721 17.6614C1.78785 17.8176 2.11087 17.8958 2.45629 17.8958H15.5437C15.8891 17.8958 16.209 17.8176 16.5032 17.6614C16.7974 17.5051 17.0597 17.2942 17.29 17.0286C17.5075 16.7629 17.6802 16.4465 17.8081 16.0793C17.936 15.7122 18 15.3176 18 14.8958V2.91919C18 2.91919 18 2.91528 18 2.90747C18 2.89966 18 2.89575 18 2.89575C18 2.47388 17.936 2.08325 17.8081 1.72388C17.6802 1.3645 17.5075 1.052 17.29 0.786377C17.0597 0.520752 16.7974 0.305908 16.5032 0.141846C16.209 -0.0222168 15.8891 -0.104248 15.5437 -0.104248H2.45629C2.11087 -0.104248 1.79104 -0.0222168 1.4968 0.141846C1.20256 0.305908 0.940298 0.520752 0.710021 0.786377C0.492537 1.052 0.319829 1.3645 0.191898 1.72388C0.0639659 2.08325 0 2.47388 0 2.89575ZM16.2729 2.45044L9 8.68481L1.72708 2.45044C1.73987 2.40356 1.75906 2.3606 1.78465 2.32153C1.81023 2.28247 1.84222 2.2395 1.8806 2.19263C1.94456 2.09888 2.02772 2.02856 2.13006 1.98169C2.23241 1.93481 2.34115 1.91138 2.45629 1.91138H15.5437C15.6588 1.91138 15.7676 1.93481 15.8699 1.98169C15.9723 2.02856 16.0554 2.09888 16.1194 2.19263C16.1578 2.2395 16.1898 2.28247 16.2154 2.32153C16.2409 2.3606 16.2601 2.40356 16.2729 2.45044Z" fill="#0B7BC3"/>
</svg>
