<svg width="18" height="18" viewBox="0 0 18 18" fill="none" xmlns="http://www.w3.org/2000/svg">
<path d="M17.9977 13.0579C18.0106 12.7631 17.9688 12.481 17.8724 12.2118C17.776 11.9426 17.6378 11.6926 17.4579 11.4618C17.265 11.231 17.0337 11.0387 16.7637 10.8849C16.4938 10.731 16.1917 10.6284 15.8575 10.5772C15.5361 10.5387 15.1955 10.4746 14.8356 10.3849C14.4756 10.2951 14.1093 10.1861 13.7365 10.0579C13.5566 9.99383 13.3734 9.94896 13.187 9.92332C13.0006 9.89768 12.8174 9.89127 12.6375 9.90409C12.3675 9.92973 12.104 10.0034 11.8469 10.1252C11.5899 10.247 11.3521 10.4105 11.1335 10.6156L10.5358 11.1926C9.81596 10.7438 9.13468 10.2022 8.49197 9.56755C7.84925 8.93294 7.27723 8.2246 6.77591 7.44255L7.37364 6.8464C7.50218 6.70537 7.61466 6.55473 7.71107 6.39447C7.80747 6.23422 7.88781 6.06435 7.95208 5.88486C8.04206 5.62845 8.08706 5.35922 8.08706 5.07717C8.08706 4.79512 8.02921 4.51947 7.91352 4.25024C7.79783 3.92973 7.695 3.58999 7.60502 3.23101C7.51504 2.87204 7.44434 2.50024 7.39292 2.11563C7.35436 1.82076 7.26438 1.54832 7.12298 1.29832C6.98158 1.04832 6.80805 0.827168 6.60238 0.634859C6.38386 0.429731 6.12999 0.27268 5.84076 0.163706C5.55154 0.0547314 5.24625 0.000244141 4.92489 0.000244141H2.47615C2.43758 0.000244141 2.39902 0.000244141 2.36046 0.000244141C2.32189 0.000244141 2.28333 0.00665283 2.24477 0.019474C1.91056 0.0451145 1.59884 0.134859 1.30962 0.288706C1.0204 0.442553 0.77295 0.64127 0.567281 0.884859C0.361612 1.12845 0.210574 1.40409 0.114167 1.71178C0.0177592 2.01947 -0.0175901 2.3464 0.00811851 2.69255C0.0723901 3.32076 0.175225 3.95537 0.316622 4.5964C0.458019 5.2246 0.63798 5.85601 0.856503 6.49063C1.07503 7.12524 1.33211 7.74383 1.62776 8.3464C1.93627 8.96178 2.27691 9.56435 2.64968 10.1541C2.95818 10.6541 3.29882 11.1413 3.6716 11.6156C4.04437 12.0772 4.44928 12.5259 4.88633 12.9618C5.32338 13.3977 5.78613 13.8143 6.2746 14.2118C6.77592 14.6092 7.29651 14.981 7.8364 15.3272C8.36342 15.6733 8.91616 15.9938 9.4946 16.2887C10.0859 16.5836 10.6933 16.8432 11.3167 17.0676C11.9401 17.2919 12.5861 17.481 13.2545 17.6349C13.9229 17.7887 14.6106 17.9041 15.3176 17.981C15.3562 17.981 15.3947 17.9842 15.4333 17.9906C15.4719 17.997 15.5104 18.0002 15.549 18.0002C15.8832 18.0002 16.2013 17.9329 16.5034 17.7983C16.8055 17.6637 17.0658 17.4874 17.2843 17.2695C17.5157 17.0387 17.6924 16.7759 17.8146 16.481C17.9367 16.1861 17.9977 15.8656 17.9977 15.5195V13.0579ZM16.3588 13.0579V15.5195C16.3588 15.6349 16.3363 15.7438 16.2913 15.8464C16.2463 15.949 16.1917 16.0387 16.1274 16.1156C16.0503 16.1797 15.9603 16.2342 15.8575 16.2791C15.7547 16.324 15.6518 16.3464 15.549 16.3464C14.8934 16.2823 14.2636 16.1797 13.6594 16.0387C13.0424 15.8977 12.4479 15.7246 11.8759 15.5195C11.3038 15.3143 10.7608 15.0836 10.2466 14.8272C9.71955 14.5579 9.21824 14.2695 8.74263 13.9618C8.24131 13.6413 7.7657 13.3015 7.3158 12.9426C6.86589 12.5836 6.44492 12.2086 6.05286 11.8176C5.6608 11.4265 5.29767 11.0195 4.96346 10.5964C4.62924 10.1733 4.32717 9.73742 4.05723 9.28871C3.71016 8.75024 3.39523 8.20537 3.11244 7.65409C2.84249 7.08999 2.6079 6.52268 2.40866 5.95217C2.20942 5.38165 2.04553 4.80794 1.91698 4.23101C1.78844 3.66691 1.69846 3.10281 1.64704 2.5387C1.63419 2.42332 1.64383 2.31435 1.67597 2.21178C1.7081 2.10922 1.76273 2.01947 1.83986 1.94255C1.90413 1.85281 1.98447 1.7823 2.08088 1.73101C2.17728 1.67973 2.28333 1.65409 2.39902 1.65409L4.92489 1.63486C5.04058 1.63486 5.14663 1.65409 5.24304 1.69255C5.33945 1.73101 5.42621 1.7823 5.50334 1.8464C5.56761 1.9105 5.62224 1.98422 5.66723 2.06755C5.71222 2.15088 5.74114 2.24383 5.754 2.3464C5.81827 2.79512 5.90504 3.22781 6.0143 3.64447C6.12356 4.06114 6.24889 4.45537 6.39029 4.82717C6.41599 4.91691 6.42885 5.00986 6.42885 5.10601C6.42885 5.20217 6.41599 5.2887 6.39029 5.36563C6.37743 5.42973 6.35172 5.49063 6.31316 5.54832C6.2746 5.60601 6.23603 5.65409 6.19747 5.69255L5.15627 6.73101C5.02773 6.85922 4.9506 7.01627 4.92489 7.20217C4.89919 7.38806 4.93132 7.55794 5.0213 7.71178C5.34266 8.28871 5.70258 8.82717 6.10106 9.32717C6.48669 9.83999 6.90124 10.3143 7.34472 10.7502C7.78819 11.1861 8.26059 11.59 8.76191 11.9618C9.25037 12.3336 9.75169 12.6605 10.2659 12.9426C10.433 13.0323 10.6065 13.0643 10.7865 13.0387C10.9664 13.0131 11.1207 12.9361 11.2492 12.8079L12.3097 11.7695C12.374 11.7054 12.4479 11.6541 12.5314 11.6156C12.615 11.5772 12.7018 11.5515 12.7917 11.5387C12.856 11.5387 12.9203 11.5419 12.9845 11.5483C13.0488 11.5547 13.1131 11.5708 13.1774 11.5964C13.5887 11.7502 14.0065 11.8784 14.4307 11.981C14.8549 12.0836 15.2662 12.1605 15.6647 12.2118C15.7675 12.2246 15.8607 12.2567 15.9443 12.3079C16.0278 12.3592 16.1017 12.4233 16.166 12.5002C16.2303 12.5772 16.2785 12.6637 16.3106 12.7599C16.3427 12.856 16.3588 12.9554 16.3588 13.0579Z" fill="#0B7BC3"/>
</svg>
