<svg width="14" height="14" viewBox="0 0 14 14" fill="none" xmlns="http://www.w3.org/2000/svg">
<path d="M6.70422 1.98578L11.1183 6.39984H1.45032C1.22896 6.39984 1.03691 6.48122 0.874146 6.64398C0.711385 6.80674 0.630005 6.9988 0.630005 7.22015C0.630005 7.45453 0.711385 7.6531 0.874146 7.81586C1.03691 7.97862 1.22896 8.06 1.45032 8.06H11.1183L6.70422 12.4741C6.53495 12.6303 6.45032 12.8256 6.45032 13.06C6.45032 13.2944 6.53495 13.4897 6.70422 13.6459C6.86047 13.8152 7.05579 13.8998 7.29016 13.8998C7.52454 13.8998 7.71985 13.8152 7.8761 13.6459L13.7159 7.82562C13.755 7.78656 13.7876 7.74424 13.8136 7.69867C13.8396 7.6531 13.8657 7.60427 13.8917 7.55219C13.9308 7.44802 13.9503 7.3406 13.9503 7.22992C13.9503 7.11924 13.9308 7.01182 13.8917 6.90765C13.8787 6.85557 13.8559 6.80674 13.8234 6.76117C13.7908 6.7156 13.755 6.67328 13.7159 6.63422L7.8761 0.813904C7.71985 0.644633 7.52454 0.559998 7.29016 0.559998C7.05579 0.559998 6.86047 0.644633 6.70422 0.813904C6.53495 0.970154 6.45032 1.16221 6.45032 1.39008C6.45032 1.61794 6.53495 1.81651 6.70422 1.98578Z" fill="#0B7BC3"/>
</svg>
