<svg width="25" height="26" viewBox="0 0 25 26" fill="none" xmlns="http://www.w3.org/2000/svg">
<path d="M25 24.6772V22.186C25 21.3263 24.8155 20.5155 24.4466 19.7534C24.0777 18.9914 23.5894 18.3271 22.9818 17.7605C22.3524 17.1939 21.6146 16.7493 20.7682 16.4269C19.9219 16.1046 19.0213 15.9434 18.0664 15.9434H6.93359C5.97873 15.9434 5.07812 16.1046 4.23177 16.4269C3.38542 16.7493 2.64757 17.1939 2.01823 17.7605C1.41059 18.3271 0.922309 18.9914 0.553385 19.7534C0.184462 20.5155 0 21.3263 0 22.186V24.6772C0 25.0289 0.135634 25.3269 0.406901 25.5711C0.678168 25.8154 1.00911 25.9375 1.39974 25.9375C1.76866 25.9375 2.08876 25.8154 2.36003 25.5711C2.63129 25.3269 2.76693 25.0289 2.76693 24.6772V22.186C2.76693 21.6585 2.87543 21.17 3.09245 20.7206C3.30946 20.2712 3.61328 19.8804 4.00391 19.5483C4.37283 19.1966 4.81228 18.923 5.32227 18.7277C5.83225 18.5323 6.36936 18.4346 6.93359 18.4346H18.0664C18.6306 18.4346 19.1678 18.5323 19.6777 18.7277C20.1877 18.923 20.6272 19.1966 20.9961 19.5483C21.3867 19.8804 21.6905 20.2712 21.9076 20.7206C22.1246 21.17 22.2331 21.6585 22.2331 22.186V24.6772C22.2331 25.0289 22.3687 25.3269 22.64 25.5711C22.9112 25.8154 23.2313 25.9375 23.6003 25.9375C23.9909 25.9375 24.3218 25.8154 24.5931 25.5711C24.8644 25.3269 25 25.0289 25 24.6772ZM19.4336 7.18017C19.4336 6.32046 19.2546 5.5096 18.8965 4.74758C18.5384 3.98557 18.0447 3.32124 17.4154 2.75462C16.786 2.18799 16.0482 1.74348 15.2018 1.42109C14.3555 1.0987 13.4549 0.9375 12.5 0.9375C11.5451 0.9375 10.6445 1.0987 9.79818 1.42109C8.95182 1.74348 8.21398 2.18799 7.58464 2.75462C6.9553 3.32124 6.46159 3.98557 6.10352 4.74758C5.74544 5.5096 5.56641 6.32046 5.56641 7.18017C5.56641 8.03988 5.74544 8.85075 6.10352 9.61276C6.46159 10.3748 6.9553 11.0391 7.58464 11.6057C8.21398 12.1724 8.95182 12.6169 9.79818 12.9393C10.6445 13.2617 11.5451 13.4228 12.5 13.4228C13.4549 13.4228 14.3555 13.2617 15.2018 12.9393C16.0482 12.6169 16.786 12.1724 17.4154 11.6057C18.0447 11.0391 18.5384 10.3748 18.8965 9.61276C19.2546 8.85075 19.4336 8.03988 19.4336 7.18017ZM16.6667 7.18017C16.6667 7.70772 16.5582 8.1962 16.3411 8.64559C16.1241 9.09498 15.8203 9.48576 15.4297 9.81792C15.0608 10.1696 14.6267 10.4432 14.1276 10.6386C13.6285 10.8339 13.0859 10.9316 12.5 10.9316C11.9141 10.9316 11.3715 10.8339 10.8724 10.6386C10.3733 10.4432 9.93924 10.1696 9.57031 9.81792C9.17969 9.48576 8.87587 9.09498 8.65885 8.64559C8.44184 8.1962 8.33333 7.70772 8.33333 7.18017C8.33333 6.65262 8.44184 6.16415 8.65885 5.71476C8.87587 5.26536 9.17969 4.87459 9.57031 4.54243C9.93924 4.19073 10.3733 3.91718 10.8724 3.72179C11.3715 3.5264 11.9141 3.42871 12.5 3.42871C13.0859 3.42871 13.6285 3.5264 14.1276 3.72179C14.6267 3.91718 15.0608 4.19073 15.4297 4.54243C15.8203 4.87459 16.1241 5.26536 16.3411 5.71476C16.5582 6.16415 16.6667 6.65262 16.6667 7.18017Z" fill="#0B7BC3"/>
</svg>
