<svg width="30" height="30" viewBox="0 0 30 30" fill="none" xmlns="http://www.w3.org/2000/svg">
<rect width="30" height="30" rx="15" fill="#0B7BC3"/>
<path d="M24.5508 10.6495C24.9727 12.1261 24.9727 15.2902 24.9727 15.2902C24.9727 15.2902 24.9727 18.4191 24.5508 19.9308C24.3398 20.7745 23.6719 21.4073 22.8633 21.6183C21.3516 22.005 15.375 22.005 15.375 22.005C15.375 22.005 9.36328 22.005 7.85156 21.6183C7.04297 21.4073 6.375 20.7745 6.16406 19.9308C5.74219 18.4191 5.74219 15.2902 5.74219 15.2902C5.74219 15.2902 5.74219 12.1261 6.16406 10.6495C6.375 9.80579 7.04297 9.13782 7.85156 8.92688C9.36328 8.505 15.375 8.505 15.375 8.505C15.375 8.505 21.3516 8.505 22.8633 8.92688C23.6719 9.13782 24.3398 9.80579 24.5508 10.6495ZM13.4062 18.1378L18.3984 15.2902L13.4062 12.4425V18.1378Z" fill="white"/>
</svg>
